<?xml version="1.0" encoding="UTF-8"?>
<svg version="1.1" viewBox="0 0 1600 1600" width="1280" height="1280" xmlns="http://www.w3.org/2000/svg">
<path transform="translate(785,300)" d="m0 0h32l33 2 38 5 26 5 29 8 30 10 24 10 24 11 22 12 30 18 28 20 18 14 12 11 8 7 7 7 8 7 16 17 9 10 9 11 14 18 9 13 11 17 18 30 14 28 13 32 7 19 8 29 8 32 5 33 3 28 1 15v43l-2 23-4 35-5 27-7 28-8 26-6 15-8 15-4 5-10 8-10 4-14 3h-7l-15-4-10-6-9-9-8-13-3-9v-12l6-23 8-25 7-30 6-36 2-23v-42l-3-31-4-25-5-23-9-31-12-30-12-25-9-17-15-24-12-17-11-14-13-15-22-22-8-7-17-14-18-13-17-11-23-13-31-15-23-9-31-10-21-5-33-5-35-3h-31l-39 3-29 5-32 8-28 10-26 11-16 8-25 14-18 12-21 16-10 9-11 9-26 26-18 22-7 10-10 14-7 11-12 21-11 23-7 15-10 26-6 21-7 33-4 25-3 26v44l5 42 6 29 7 27 11 30 9 21 10 19 10 18 11 17 14 19 11 13 7 8 11 12 19 19 11 9 9 8 11 8 13 9 19 12 24 13 16 8 19 8 25 9 21 6 34 7 32 4 10 1h51l35-4 31-6 31-9 20-7 28-12 26-14 17-10 12-8 11-8 12-9 13-10 14-10 13-4h9l16 3 14 7 6 5 11 17 3 11 1 13-9 19-12 14-7 7-14 11-14 10-16 11-11 7-10 6-23 13-35 17-29 11-31 10-28 7-26 5-38 5-23 2h-58l-36-4-30-5-22-5-27-8-32-11-31-13-29-14-20-12-24-16-16-12-16-13-11-9-15-14-12-11-12-13-10-11-9-11-10-12-13-18-7-10-11-17-14-25-9-17-13-29-14-39-8-29-6-27-6-39-3-30v-45l3-34 5-36 5-24 10-36 8-23 10-25 16-34 6-10 9-16 9-14 10-15 14-19 9-11 8-10 7-9h2l2-4 31-31 11-9 13-11 12-9 18-13 15-10 22-13 29-15 21-10 26-10 25-8 31-8 26-5 29-4 23-2z" fill="#F95401"/>
<path transform="translate(1158,256)" d="m0 0h14l12 3 16 8 13 10 15 13 10 8 11 10 8 7 3 2v2l4 2 7 8 18 18 7 8 11 12 22 28 14 19 11 16 11 17 12 20 10 18 18 36 14 33 10 28 7 21 11 40 7 34 7 44 4 37 1 21v34l-2 38-3 28-7 43-5 25-7 28-9 30-9 26-10 26-12 27-16 32-13 22-11 18-6 9-11 16-9 13-13 17-11 13-12 14-11 12-7 8-30 30-8 7-15 13-11 9-9 7-17 13-17 12-19 12-18 11-15 9-29 15-23 11-29 12-33 12-31 9-31 8-36 7-41 6-33 3-36 2h-19l-36-2-30-3-41-7-38-8-35-10-36-12-28-11-25-11-22-11-14-9-11-9-7-10-5-14-1-4v-9l4-12 6-12 9-10 8-6 11-5 3-1h8l15 4 25 10 15 7 32 14 19 7 27 9 28 8 36 7 36 5 37 3h58l36-3 29-4 38-8 40-11 30-11 25-10 28-13 24-13 19-12 17-11 16-11 19-14 30-26 16-15 16-16 7-8 12-13 8-10 11-13 10-14 9-13 13-21 11-19 12-23 7-15 10-22 11-30 7-21 10-40 7-36 3-23 3-44v-48l-3-42-5-31-8-38-11-38-16-43-13-29-13-26-10-17-11-18-9-13-12-17-10-13-11-13-7-8-9-10-11-12-18-18-11-9-11-10-11-9-12-11-11-11-7-10-5-11-1-11 3-15 8-14 7-8 13-9z" fill="#F95401"/>
<path transform="translate(785,133)" d="m0 0h14l16 2 14 7 10 9 6 10 3 9 2 14-3 15-6 11-9 10-8 6-9 3-12 2-61 5-33 4-37 7-38 10-27 9-29 11-26 12-16 8-24 13-42 28-16 12-13 10-13 12-8 7-15 14-23 23-7 8-9 10-11 14-20 26-7 11-12 19-14 24-15 30-13 30-13 36-9 31-9 41-4 23-4 36-1 20v54l2 29 5 38 6 28 11 42 11 32 8 20 15 33 15 28 20 32 11 16 10 15 8 13 6 13 2 13-2 9-5 10-9 11-8 8-12 7-7 2h-16l-12-4-9-6-9-8-9-11-13-18-14-21-12-19-12-21-12-23-11-22-15-36-15-43-10-37-6-26-6-32-4-30-2-24-1-20v-62l3-37 6-39 6-33 6-24 9-31 9-27 11-28 12-27 11-23 12-22 16-27 7-11 15-22 10-14 12-15 11-14 11-12 7-8 12-13 7-8 13-13 8-7 13-12 11-9 13-11 13-10 16-12 27-18 21-13 26-15 38-19 19-8 34-13 24-8 29-8 30-7 41-7 31-4 27-2z" fill="#F95401"/>
<path transform="translate(699,533)" d="m0 0h112l32 2 21 4 21 7 16 8 12 7 17 12 15 14 7 7 9 11 8 11 9 15 10 24 7 24 4 22v33l-5 25-6 20-10 22-11 17-14 19-12 13-9 8-16 11-20 11h-2l4 10 10 14 16 27 17 29 12 20 8 16 4 10 2 11-2 11-4 10-8 11-10 8-13 8-10 2-14-1-7-3-6-2-11-9-10-12-48-80-10-17-11-18-11-20-4-4-7-1-47-2v118l-2 13-6 12-9 10-10 8-15 7-8 1-15-3-10-5-13-11-7-10-4-13-1-6-1-22-1-412 2-14 5-13 7-9 9-8 11-5 10-2zm67 99-33 1-1 133v32l1 3 73-1 23-2 15-4 16-8 11-7 9-9 7-10 8-16 3-13 1-8v-16l-4-19-5-12-8-12-9-10-10-8-12-7-16-5-7-1z" fill="#F95401"/>
</svg>
