<?xml version="1.0" encoding="UTF-8"?>
<svg version="1.1" viewBox="0 0 1600 1600" width="1280" height="1280" xmlns="http://www.w3.org/2000/svg">
<path transform="translate(1162,256)" d="m0 0h9l14 3 17 9 10 8 14 12 11 9 14 12 16 15 11 11 7 8 7 7 7 8 10 11 20 26 26 36 13 21 14 24 14 27 11 23 14 32 11 28 12 28 20 40 16 33 12 29 10 27 10 34 6 24 8 43 4 29 2 30v59l-2 30-5 36-10 49-9 32-11 33-14 34-16 34-13 23-12 20-10 15-11 16-13 18-11 13-9 11-13 14-7 8-25 25-11 9-7 7-13 10-12 10-16 12-15 10-24 15-16 9-22 12-28 13-21 9-28 10-26 8-35 9-35 7-42 6-25 2-25 1h-21l-40-2-36-4-36-7-33-8-20-6-35-12-38-16-17-8-16-8-23-12-25-12-54-22-39-18-17-8-14-8-9-7-5-6-6-12-3-13 1-10 8-15 1-3v-7l-6-11-10-13-15-22-11-17-11-18-12-21-9-19-6-13-12-31-13-38-7-26-9-41-8-41-3-15-12-43-9-37-7-39-4-36-1-20v-13l2-32 4-34 5-29 6-26 8-28 7-20 8-21 7-15 10-21 16-28 16-24 8-11 10-14 14-17 9-11 30-30 17-16 13-10 10-8 16-11 27-18 23-13 23-12 28-12 23-8 15-5 35-9 35-6 35-4 18-1h53l34 3 41 7 36 9 30 9 25 6 43 8 39 8 38 10 31 11 19 8 15 6 12 7 3 1-4-5-22-15-14-12-10-9-13-13-8-12-5-14v-12l3-12 8-13 8-9 11-7 8-3z" fill="#F75501"/>
<path transform="translate(1162,256)" d="m0 0h9l14 3 17 9 10 8 14 12 11 9 14 12 16 15 11 11 7 8 7 7 7 8 10 11 20 26 26 36 13 21 14 24 14 27 11 23 14 32 11 28 12 28 20 40 16 33 12 29 10 27 10 34 6 24 8 43 4 29 2 30v59l-2 30-5 36-10 49-9 32-11 33-14 34-16 34-13 23-12 20-10 15-11 16-13 18-11 13-9 11-13 14-7 8-25 25-11 9-7 7-13 10-12 10-16 12-15 10-24 15-16 9-22 12-28 13-21 9-28 10-26 8-35 9-35 7-42 6-25 2-25 1h-21l-40-2-36-4-36-7-33-8-20-6-35-12-38-16-17-8-16-8-23-12-25-12-54-22-39-18-17-8-14-8-9-7-5-6-6-12-3-13 1-10 8-15 3-8 18-11 14-6 3-1h7l28 11 17 8 28 11 30 11 38 12 48 12 34 7 24 3 13 1h50l30-3 29-4 29-5 30-7 42-12 28-10 28-11 33-16 21-11 17-10 24-16 13-10 16-12 14-12 11-10 8-7 14-14 7-8 12-13 11-14 13-16 14-19 11-17 8-12 6-11 10-17 14-26 14-32 8-21 8-24 11-44 5-26 4-26 3-27 1-21v-37l-2-35-5-40-7-39-6-25-8-28-11-31-12-28-8-17-13-23-9-15-9-14-11-16-12-16-16-21-9-10-7-8-12-12-8-7-16-13-3-3 5 2 10 5-4-5-22-15-14-12-10-9-13-13-8-12-5-14v-12l3-12 8-13 8-9 11-7 8-3z" fill="#161939"/>
<path transform="translate(776,300)" d="m0 0h53l34 3 41 7 36 9 30 9 28 7v1l-11-1 16 9 14 8 25 14 22 12 28 18 15 10 12 9 13 11 17 16 18 18 7 8 10 10 9 11 11 13 13 19 16 26 15 27 13 29 9 24 9 28 6 24 9 48 3 22 2 27v48l-3 33-6 36-6 28-6 22-9 30-4 10-7 11-7 7-12 6-12 3h-15l-14-4-8-4-12-11-6-11-5-14 1-10 6-21 8-29 9-42 4-27 1-14v-43l-4-39-5-29-11-41-9-27-12-26-10-19-14-23-12-17-11-14-10-11-7-8-21-21-8-7-13-11-16-12-10-7-15-10-17-10-23-12-29-12-27-9-36-9-34-6-19-2h-43l-30 3-35 6-24 6-30 10-21 9-22 10-21 12-24 15-13 10-14 11-10 9-12 11-29 29-9 11-7 8-9 13-10 16-12 20-8 16-9 19-9 23-9 28-6 24-5 28-3 30v38l4 35 5 29 8 32 8 26 12 31 7 16 12 22 12 20 12 17 13 16 12 14 17 17v2l4 2 8 8 26 20 18 13 21 12 12 7 24 11 27 11 36 12 25 6 36 6 31 3h12l32-2 33-5 32-7 28-8 31-12 28-13 23-13 16-10 10-7 19-14 12-8 17-10 16-5h7l12 4 11 8 10 10 6 10 4 12v13l-3 12-7 10-7 9-13 12-13 10-24 16-16 10-19 11-23 12-21 10-17 7-14 6-37 12-27 7-31 6-30 4-27 2h-45l-26-2-35-5-25-5-30-8-33-11-27-11-35-17-23-13-13-8-15-10-13-10-20-16-11-9-11-10-8-7-12-12-9-11-11-12-8-10-13-16-9-14-8-12-8-13-9-15-16-27-10-15-2-4-3-15-12-43-9-37-7-39-4-36-1-20v-13l2-32 4-34 5-29 6-26 8-28 7-20 8-21 7-15 10-21 16-28 16-24 8-11 10-14 14-17 9-11 30-30 17-16 13-10 10-8 16-11 27-18 23-13 23-12 28-12 23-8 15-5 35-9 35-6 35-4z" fill="#161939"/>
<path transform="translate(720,531)" d="m0 0h69l23 1 31 4 24 6 24 9 16 8 14 8 14 11 10 9 8 8 11 14 9 13 12 23 9 24 4 18 2 17v26l-4 22-8 26-9 20-8 15-14 21-18 20-18 13-19 11-6 4-1 3 7 12 8 12 15 24 16 26 10 17 15 29 3 11-1 10-4 9-7 10-8 8-11 8-15 6-4 1-13-1-14-7-12-11-11-14-7-11-8-13-12-21-15-26-14-24-8-12-10-14-9-10-8-4-12-3h-23l-9 2 1 49v63l-3 17-5 11-6 8-10 9-11 6-11 3h-15l-16-8-11-7-9-14-4-15-2-14-1-14v-411l3-14 4-9 9-10 10-7 11-5 13-4 10-1z" fill="#16193A"/>
<path transform="translate(777,133)" d="m0 0h28l11 2 11 6 10 9 6 8 4 10 2 11v10l-4 14-10 14-9 8-11 4-25 3-48 4-32 4-36 7-36 9-30 10-31 12-24 11-16 8-15 8-14 8-14 9-19 13-17 12-16 13-11 9-17 16-9 8-15 15-7 8-4 5h-2l-2 4-9 9-8 11-9 11-12 16-12 18-15 25-9 16-15 30-15 35-12 34-8 29-9 43-5 33-2 20-1 17v58l2 27 5 37 7 34 11 41 10 29 10 25 12 26 13 25 12 19 10 16 18 27 11 19 6 15 2 6v9l-5 12-8 10-10 10-14 8-6 2-11 1-12-3-11-6-10-9-7-7-12-16-22-33-12-20-12-21-8-15-11-23-15-36-14-40-9-32-7-29-6-31-4-27-3-30-2-46v-18l2-38 4-35 8-48 8-34 11-37 13-37 13-30 14-29 12-23 16-27 13-20 11-16 9-12 10-13 11-14 11-13 16-17 9-10 24-24 11-9 8-8 14-11 15-12 12-9 18-13 24-15 20-12 21-12 30-15 26-11 28-11 30-10 30-8 26-6 41-7 31-4 24-2z" fill="#161939"/>
<path transform="translate(1437,604)" d="m0 0 3 1 12 25 9 19 16 32 9 20 12 31 9 27 9 33 8 40 5 33 2 21 1 17v59l-2 30-5 36-10 49-9 32-11 33-14 34-16 34-13 23-12 20-10 15-11 16-13 18-11 13-9 11-13 14-7 8-25 25-11 9-7 7-13 10-12 10-16 12-15 10-24 15-16 9-22 12-28 13-21 9-28 10-26 8-35 9-35 7-42 6-25 2-25 1h-21l-40-2-36-4-36-7-33-8-20-6-35-12-38-16-17-8-16-8-23-12-25-12-3-1v-2l17 2 36 9 17 5 33 8 23 4 19 2 17 1h65l40-3 37-5 41-8 35-9 40-13 20-8 28-11 36-17 29-15 24-14 19-12 23-16 18-13 14-11 9-8 8-7 13-12 10-10 5-4 7-8 9-9 8-10 8-8 7-8 9-11 10-13 7-11 11-15 15-23 6-11 13-22 7-14 9-17 4-10 7-15 9-22 10-29 5-15 2-5 8-30 7-29 7-37 4-29 2-24v-59l-3-38-4-34-6-35-6-28-7-36z" fill="#F85601"/>
<path transform="translate(764,631)" d="m0 0h51l17 2 19 5 8 4 11 9 10 10 9 13 5 11 4 16 1 6v22l-4 17-8 15-7 9-11 11-10 7-16 8-19 5-17 2-44 1h-29l-2-3v-119l1-38 1-9 2-2 4-1z" fill="#F85601"/>
</svg>
